HIERARCHY
ROOT SpineBase
{
  OFFSET 0.000000 0.000000 0.000000
  CHANNELS 6 Xposition Yposition Zposition Zrotation Xrotation Yrotation
  JOINT SpineMid
  {
    OFFSET 0.000000 27.029603 0.000000
    CHANNELS 3 Zrotation Xrotation Yrotation
    JOINT SpineShoulder
    {
      OFFSET 0.057072 20.172057 -0.655353
      CHANNELS 3 Zrotation Xrotation Yrotation
      JOINT Neck
      {
        OFFSET -0.002849 6.697250 -0.487649
        CHANNELS 3 Zrotation Xrotation Yrotation
        JOINT Head
        {
          OFFSET -2.724547 11.447189 1.233742
          CHANNELS 3 Zrotation Xrotation Yrotation
          End Site
          {
            OFFSET 0 0 0
          }
        }
      }
      JOINT ShoulderLeft
      {
        OFFSET -12.566057 -3.660274 4.051818
        CHANNELS 3 Zrotation Xrotation Yrotation
        JOINT ElbowLeft
        {
          OFFSET -1.130395 -24.534279 2.830281
          CHANNELS 3 Zrotation Xrotation Yrotation
          JOINT WristLeft
          {
            OFFSET -1.942590 -19.675053 -6.497456
            CHANNELS 3 Zrotation Xrotation Yrotation
            JOINT HandLeft
            {
              OFFSET -1.003709 -3.708931 -2.352732
              CHANNELS 3 Zrotation Xrotation Yrotation
              JOINT HandTipLeft
              {
                OFFSET -1.964755 -3.102338 -3.762189
                CHANNELS 3 Zrotation Xrotation Yrotation
                End Site
                {
                  OFFSET 0 0 0
                }
              }
              JOINT ThumbLeft
              {
                OFFSET 4.440649 0.013442 -0.384162
                CHANNELS 3 Zrotation Xrotation Yrotation
                End Site
                {
                  OFFSET 0 0 0
                }
              }
            }
          }
        }
      }
      JOINT ShoulderRight
      {
        OFFSET 11.109341 -2.130106 -7.249812
        CHANNELS 3 Zrotation Xrotation Yrotation
        JOINT ElbowRight
        {
          OFFSET 5.386763 -22.415658 -2.029274
          CHANNELS 3 Zrotation Xrotation Yrotation
          JOINT WristRight
          {
            OFFSET -0.741383 -21.320924 -6.437239
            CHANNELS 3 Zrotation Xrotation Yrotation
            JOINT HandRight
            {
              OFFSET -1.002219 -4.590337 -0.609100
              CHANNELS 3 Zrotation Xrotation Yrotation
              JOINT HandTipRight
              {
                OFFSET -1.285010 -4.186534 -0.846534
                CHANNELS 3 Zrotation Xrotation Yrotation
                End Site
                {
                  OFFSET 0 0 0
                }
              }
              JOINT ThumbRight
              {
                OFFSET -2.770327 1.106143 0.444328
                CHANNELS 3 Zrotation Xrotation Yrotation
                End Site
                {
                  OFFSET 0 0 0
                }
              }
            }
          }
        }
      }
    }
  }
  JOINT HipLeft
  {
    OFFSET -5.639789 0.281715 -1.247365
    CHANNELS 3 Zrotation Xrotation Yrotation
    JOINT KneeLeft
    {
      OFFSET 6.426483 -30.690999 1.830509
      CHANNELS 3 Zrotation Xrotation Yrotation
      JOINT AnkleLeft
      {
        OFFSET 5.519755 -33.613012 6.415644
        CHANNELS 3 Zrotation Xrotation Yrotation
        JOINT FootLeft
        {
          OFFSET 3.152438 -6.024443 -3.956576
          CHANNELS 3 Zrotation Xrotation Yrotation
          End Site
          {
            OFFSET 0 0 0
          }
        }
      }
    }
  }
  JOINT HipRight
  {
    OFFSET 5.212469 1.283856 -4.782335
    CHANNELS 3 Zrotation Xrotation Yrotation
    JOINT KneeRight
    {
      OFFSET 5.762947 -26.384441 -1.836468
      CHANNELS 3 Zrotation Xrotation Yrotation
      JOINT AnkleRight
      {
        OFFSET 4.937250 -37.523707 6.129097
        CHANNELS 3 Zrotation Xrotation Yrotation
        JOINT FootRight
        {
          OFFSET -4.000963 -5.753730 1.970074
          CHANNELS 3 Zrotation Xrotation Yrotation
          End Site
          {
            OFFSET 0 0 0
          }
        }
      }
    }
  }
}
MOTION
Frames: 6
Frame Time: 0.033333
27.411104 70.046739 372.536661 -0.000000 0.000000 18.042290 -0.000000 0.000000 -18.042290 -0.000000 0.000000 0.000000 -0.000000 0.000000 0.000000 0.000000 0.000000 0.000000 -0.000000 0.000000 0.000000 -0.000000 0.000000 0.000000 -0.000000 0.000000 0.000000 -0.000000 0.000000 0.000000 0.000000 0.000000 0.000000 0.000000 0.000000 0.000000 -0.000000 0.000000 0.000000 -0.000000 0.000000 0.000000 -0.000000 0.000000 0.000000 -0.000000 0.000000 0.000000 0.000000 0.000000 0.000000 0.000000 0.000000 0.000000 -0.000000 0.000000 -18.042290 -0.000000 0.000000 0.000000 -0.000000 0.000000 0.000000 0.000000 0.000000 0.000000 -0.000000 0.000000 -18.042290 -0.000000 0.000000 0.000000 -0.000000 0.000000 0.000000 0.000000 0.000000 0.000000
27.429481 70.063805 372.532821 -0.078909 0.013614 18.027825 0.070822 -0.037367 -18.027793 -0.000000 0.000000 0.000000 -0.000000 0.000000 0.000000 0.000000 0.000000 0.000000 -0.000000 0.000000 0.000000 -0.000000 0.000000 0.000000 -1.033054 -1.250854 0.986972 1.174510 0.054015 -0.428698 0.000000 0.000000 0.000000 0.000000 0.000000 0.000000 -0.000000 0.000000 0.000000 -0.000000 0.000000 0.000000 -0.997005 0.819696 -0.039427 6.441682 -2.953536 -0.215875 0.000000 0.000000 0.000000 0.000000 0.000000 0.000000 0.070822 -0.037367 -18.027793 -0.000000 0.000000 0.000000 -1.626669 10.340066 6.306406 0.000000 0.000000 0.000000 0.070822 -0.037367 -18.027793 -0.000000 0.000000 0.000000 0.507341 11.555046 -8.237021 0.000000 0.000000 0.000000
27.446049 70.080772 372.530087 -0.144693 0.022702 18.021349 0.130571 -0.066352 -18.021245 -0.000000 0.000000 0.000000 0.951297 0.011770 -0.099629 0.000000 0.000000 0.000000 -0.000000 0.000000 0.000000 -0.000000 0.000000 0.000000 -1.870355 -2.381906 1.808055 2.150367 0.182500 -0.849627 0.000000 0.000000 0.000000 0.000000 0.000000 0.000000 -0.000000 0.000000 0.000000 -0.000000 0.000000 0.000000 -1.696700 1.570602 -0.094047 11.578137 -4.940023 -0.265677 0.000000 0.000000 0.000000 0.000000 0.000000 0.000000 0.130571 -0.066352 -18.021245 -0.000000 0.000000 0.000000 -4.669310 18.101111 12.289179 0.000000 0.000000 0.000000 0.130571 -0.066352 -18.021245 -0.576148 -1.029580 -0.234568 3.019268 22.943571 -16.075148 0.000000 0.000000 0.000000
27.460808 70.097640 372.528459 -0.197390 0.027273 18.022860 0.179266 -0.087006 -18.022677 -0.000000 0.000000 0.000000 1.254376 0.014807 -0.131491 0.000000 0.000000 0.000000 -0.000000 0.000000 0.000000 0.605591 0.666188 -0.268911 -3.089138 -4.043260 2.687134 2.917371 0.296376 -1.194162 0.000000 0.000000 0.000000 0.000000 0.000000 0.000000 -0.000000 0.000000 0.000000 -0.000000 0.000000 0.000000 -2.128473 2.271035 -0.170111 15.579808 -6.049516 -0.331911 0.000000 0.000000 0.000000 0.000000 0.000000 0.000000 0.179266 -0.087006 -18.022677 -0.000000 0.000000 0.000000 -8.674487 23.323589 17.989610 0.000000 0.000000 0.000000 0.179266 -0.087006 -18.022677 -0.745770 -1.344029 -0.307088 5.872306 30.850764 -22.891718 0.000000 0.000000 0.000000
27.473758 70.114408 372.527938 -0.237030 0.027332 18.032354 0.216927 -0.099363 -18.032109 -0.000000 0.000000 0.000000 1.442719 0.016229 -0.151386 0.000000 0.000000 0.000000 -0.000000 0.000000 0.000000 0.720243 0.752414 -0.316383 -3.612070 -4.942563 3.188681 3.467106 0.336507 -1.413489 0.000000 0.000000 0.000000 0.000000 0.000000 0.000000 -0.000000 0.000000 0.000000 -0.000000 0.000000 0.000000 -2.309669 2.936296 -0.273376 18.582851 -6.354742 -0.537395 0.000000 0.000000 0.000000 0.000000 0.000000 0.000000 0.216927 -0.099363 -18.032109 -0.000000 0.000000 0.000000 -13.308475 26.301776 23.391101 0.000000 0.000000 0.000000 -0.129863 0.639109 -17.861561 -0.287175 -2.125549 -0.524218 8.303662 35.623987 -27.705204 0.000000 0.000000 0.000000
27.484899 70.131078 372.528522 -0.263636 0.022884 18.049823 0.243572 -0.103443 -18.049550 -0.000000 0.000000 0.000000 1.516639 0.016158 -0.159332 0.000000 0.000000 0.000000 -0.000000 0.000000 0.000000 0.791050 0.771016 -0.342160 -3.875178 -5.581200 3.492302 3.795453 0.261184 -1.473244 0.000000 0.000000 0.000000 0.000000 0.000000 0.000000 -0.000000 0.000000 0.000000 -0.000000 0.000000 0.000000 -2.247125 3.579555 -0.409891 20.684726 -5.889244 -0.969579 0.000000 0.000000 0.000000 0.000000 0.000000 0.000000 0.243572 -0.103443 -18.049550 -0.000000 0.000000 0.000000 -18.338225 27.292470 28.422316 0.000000 0.000000 0.000000 -0.270308 0.507413 -17.908328 -0.182940 -2.013973 -0.504111 9.515471 37.659559 -30.005151 0.000000 0.000000 0.000000
